<svg width="123" height="36" viewBox="0 0 123 36" fill="none" xmlns="http://www.w3.org/2000/svg">
<path d="M3.1381 8.37228C3.39069 7.87836 0.0521756 4.94605 0.0521756 2.01468C0.0521756 0.224765 6.22402 0.564362 9.14155 0.224765C15.706 -0.515875 22.6351 0.811086 29.2277 0.811086C50.0151 0.811086 70.7184 1.86036 91.4776 1.86036C99.5571 1.86036 107.721 1.737 115.604 3.65052C116.866 3.95916 121.691 4.4838 122.336 5.87244C123.15 7.69332 118.746 9.8226 118.156 10.4706C117.708 10.9645 119.447 11.6744 119.643 11.7978C120.793 12.5694 122.14 14.205 122.729 15.501C123.767 17.7539 117.988 18.5255 117.623 19.3588C117.567 19.5131 117.82 19.7291 117.904 19.7908C118.97 20.5624 121.635 21.4264 122.224 22.7535C123.637 25.9363 119.671 26.5494 119.671 27.0431C119.671 27.9073 123.543 30.0366 122.084 31.6415C121.663 32.1351 117.034 31.2095 115.491 31.2095C108.73 31.2095 101.913 30.7465 95.1527 31.2095C74.0848 32.6598 53.129 35.2213 31.9769 35.2213C26.8993 35.2213 21.7937 35.067 16.744 35.067C12.9569 35.067 8.60847 35.3447 5.01761 34.0177C3.41859 33.4314 3.58699 31.6722 3.27835 30.0059C2.7455 27.074 1.93192 24.4508 1.93192 21.3956C1.93192 20.871 2.54896 17.7848 2.465 17.6922C1.87587 17.0442 -0.368568 14.9147 0.0521756 13.5568C0.697597 11.3658 2.26847 10.2856 3.1381 8.37228Z" fill="#1D4ED8"/>
</svg>
